<?xml version="1.0" standalone="no"?><!DOCTYPE svg PUBLIC "-//W3C//DTD SVG 1.1//EN" "http://www.w3.org/Graphics/SVG/1.1/DTD/svg11.dtd"><svg t="1641279150221" class="icon" viewBox="0 0 1025 1024" version="1.1" xmlns="http://www.w3.org/2000/svg" p-id="1227" xmlns:xlink="http://www.w3.org/1999/xlink" width="200.1953125" height="200"><defs><style type="text/css"></style></defs><path d="M916.584309 383.50065H710.186389c-3.550932-4.438665-6.657997-8.87733-10.208929-12.872128L640.49935 310.706545v-11.540529a21.749458 21.749458 0 0 0-40.391851-11.540528 67.02384 67.02384 0 0 0-61.253576 16.866926 68.799306 68.799306 0 0 0-15.979194 26.63199 71.462505 71.462505 0 0 0-21.305592-3.550932 66.579974 66.579974 0 0 0-66.136107 53.707846 67.02384 67.02384 0 0 0-75.90117 70.574772 68.35544 68.35544 0 0 0-37.728652 19.086259 66.579974 66.579974 0 0 0-19.530126 47.493715 68.799306 68.799306 0 0 0 19.530126 47.937581l19.086259 18.642393v24.856524a22.637191 22.637191 0 0 0-20.417859-13.759862h-21.305592a22.193325 22.193325 0 0 0-22.193324 22.193325 22.193325 22.193325 0 0 0 22.193324 22.193325h21.305592a22.637191 22.637191 0 0 0 20.417859-13.315995v33.733853a106.527958 106.527958 0 0 0 44.386649 85.222367v170.444734a107.415691 107.415691 0 0 0 107.415692 107.415691h425.667967a107.415691 107.415691 0 0 0 107.415691-107.415691v-425.667967a107.415691 107.415691 0 0 0-109.191157-107.415692z m-537.96619 177.546598L355.093195 534.859124a22.637191 22.637191 0 0 1-6.657998-16.42306 22.637191 22.637191 0 0 1 6.657998-15.979194 23.081058 23.081058 0 0 1 32.402254 0l46.605981 44.38665a22.637191 22.637191 0 0 0 31.514521 0 22.637191 22.637191 0 0 0 4.882532-14.203728 22.193325 22.193325 0 0 0-6.657998-15.535327l-44.386649-46.605982-6.657997-6.657998a23.081058 23.081058 0 0 1 31.070654-31.958387l31.958388 31.958387a22.637191 22.637191 0 0 0 31.514521 0 22.193325 22.193325 0 0 0 6.657997-15.535327 22.637191 22.637191 0 0 0-6.657997-15.979194l-21.305592-21.305591a22.637191 22.637191 0 0 1-6.657997-15.979194 22.637191 22.637191 0 0 1 6.657997-16.42306 22.637191 22.637191 0 0 1 15.979194-6.657998 22.637191 22.637191 0 0 1 15.979194 6.657998l21.305591 21.305591a22.193325 22.193325 0 0 0 31.514521 0 22.193325 22.193325 0 0 0 6.214131-15.535327 22.637191 22.637191 0 0 0-6.657997-15.979194 21.305592 21.305592 0 0 1-6.657998-15.979193 22.637191 22.637191 0 0 1 6.657998-16.423061 23.081058 23.081058 0 0 1 32.402254 0l66.136107 66.136108a188.64326 188.64326 0 0 1-133.159948 321.803208h-88.773298a62.585176 62.585176 0 0 1-63.029042-63.029043v-31.514521l47.049848 47.493715a22.637191 22.637191 0 0 0 31.514521 0 22.637191 22.637191 0 0 0 6.657997-15.979194 22.193325 22.193325 0 0 0-6.657997-15.535327l-83.890767-85.222366z m600.995232 355.093194a63.472909 63.472909 0 0 1-63.029042 63.029042h-425.667967a63.029042 63.029042 0 0 1-63.029042-63.029042v-149.583008a102.977026 102.977026 0 0 0 20.417858 0h88.773299a233.029909 233.029909 0 0 0 233.029909-233.029909 229.922844 229.922844 0 0 0-27.519723-107.415691h177.546598a63.029042 63.029042 0 0 1 63.029042 63.029042zM22.193325 395.485046a22.193325 22.193325 0 0 0-22.193325 22.193324v88.773299a22.193325 22.193325 0 0 0 22.193325 22.193324 22.193325 22.193325 0 0 0 22.193324-22.193324v-88.773299a22.193325 22.193325 0 0 0-22.193324-22.193324zM596.1127 107.415691V168.669267a22.193325 22.193325 0 0 0 22.193325 22.193325 22.193325 22.193325 0 0 0 22.193325-22.193325V107.415691a99.869961 99.869961 0 0 0-5.326398-34.17772 22.193325 22.193325 0 0 0-27.963589-13.759861 22.193325 22.193325 0 0 0-14.203728 27.963589 49.713047 49.713047 0 0 1 3.107065 19.973992zM373.291721 44.386649h88.773299a22.193325 22.193325 0 0 0 22.193324-22.193324 22.193325 22.193325 0 0 0-22.193324-22.193325h-88.773299a22.193325 22.193325 0 0 0 0 44.386649zM213.055917 596.1127h-88.773299a22.193325 22.193325 0 0 0-22.193325 22.193325 22.193325 22.193325 0 0 0 22.193325 22.193325h88.773299a22.193325 22.193325 0 0 0 22.193324-22.193325 22.637191 22.637191 0 0 0-22.193324-22.193325zM108.303424 44.386649h88.773299a22.193325 22.193325 0 0 0 22.193325-22.193324 22.193325 22.193325 0 0 0-22.193325-22.193325h-93.211964a22.193325 22.193325 0 0 0-19.086259 22.193325 22.193325 22.193325 0 0 0 22.193325 22.193324zM22.193325 129.16515a22.193325 22.193325 0 0 0-22.193325 22.193324v88.773299a22.193325 22.193325 0 0 0 22.193325 22.193325 22.193325 22.193325 0 0 0 22.193324-22.193325v-88.773299a22.193325 22.193325 0 0 0-22.193324-22.193324z" p-id="1228" fill="#1296db"></path></svg>
